<svg xmlns="http://www.w3.org/2000/svg" width="44" height="30" viewBox="0 0 44 30">
    <g fill="#FFF" fill-rule="evenodd">
        <path fill-rule="nonzero" d="M40.5 30c-2.136 0-3.403-1.092-3.5-2.666h2.043c0 .525.29 1.223 1.554 1.266.876 0 1.36-.524 1.36-.918-.096-.611-.875-.655-1.65-.788-.877-.127-1.555-.304-2.043-.522-.679-.35-1.07-1.095-1.07-1.88 0-1.4 1.17-2.492 3.21-2.492 1.945 0 3.208 1.005 3.302 2.535h-1.942c0-.39-.097-1.049-1.264-1.049-.779 0-1.264.13-1.36.699 0 .788 1.65.744 2.914 1.048 1.167.308 1.946 1.05 1.946 2.101C44 29.258 42.446 30 40.5 30M5 16.787L11.509 13 15 19H6.226"/>
        <path d="M18 22v7h2v-7z"/>
        <path fill-rule="nonzero" d="M2 26c0 1.097.957 2 1.999 2A1.987 1.987 0 0 0 6 26c0-1.058-.868-2-2.001-2C2.957 24 2 24.942 2 26m1.856 4C1.787 30 0 28.206 0 25.978S1.787 22 3.856 22c.848 0 1.603.22 2.26.698v-.611H8v7.736H6.116v-.481c-.564.438-1.412.658-2.26.658M29.142 19L20 3.702 26.571 0 38 19M11 26c0 1.097.87 2 2 2 1.04 0 2-.903 2-2 0-1.058-.96-2-2-2-1.13 0-2 .942-2 2m1.86 4C10.692 30 9 28.304 9 26.198s1.693-3.76 3.86-3.76c.844 0 1.599.208 2.259.66V20H17v9.833h-1.881v-.455c-.66.414-1.415.622-2.26.622M13 10.59L19.666 7 27 19.203h-6.954V21h-1.903v-1.797M42.873 21c-.438 0-.873-.393-.873-.864s.435-.864.873-.864c.522 0 .873.393.873.864a.848.848 0 0 1-.873.864m-.174-1.491c-.438 0-.699.351-.699.744s.261.747.699.747c.435 0 .696-.354.696-.747s-.261-.744-.696-.744"/>
        <path fill-rule="nonzero" d="M42.8 21l-.29-.393h-.29V21H42v-.942h.655c.145 0 .435.12.435.276 0 .156-.145.234-.29.273l.29.393m-.8-1.312H42V20h.29c.29 0 .29-.039.29-.156 0-.081 0-.156-.29-.156M31 26c0 1.097.87 2 2.001 2C34.046 28 35 27.097 35 26c0-1.058-.954-2-1.999-2-1.13 0-2.001.942-2.001 2m1.902 4C30.713 30 29 28.206 29 25.978S30.713 22 32.902 22c.858 0 1.621.22 2.286.698v-.611H37v7.736h-1.812v-.481c-.665.438-1.428.658-2.286.658M22 26c0 1.097.957 2 2 2 1.13 0 2-.903 2-2 0-1.058-.87-2-2-2-1.043 0-2 .942-2 2zm4.119-6H28v9.833h-1.881v-.455c-.567.414-1.32.622-2.166.622C21.787 30 20 28.304 20 26.198s1.787-3.76 3.953-3.76c.845 0 1.6.208 2.166.66V20z"/>
    </g>
</svg>
